<svg data-v-fde0c5aa="" xmlns="http://www.w3.org/2000/svg" viewBox="0 0 300 300" class="iconLeft"><!----><defs data-v-fde0c5aa=""><linearGradient data-v-fde0c5aa="" gradientTransform="rotate(25)" id="2de256b1-820e-4778-a845-28f24bd46a23" x1="0%" y1="0%" x2="100%" y2="0%"><stop data-v-fde0c5aa="" offset="0%" stop-color="#288B58" stop-opacity="1"></stop><stop data-v-fde0c5aa="" offset="100%" stop-color="#1522F1" stop-opacity="1"></stop></linearGradient></defs><rect data-v-fde0c5aa="" fill="url(#2de256b1-820e-4778-a845-28f24bd46a23)" x="0" y="0" width="300px" height="300px" class="logo-background-square"></rect><defs data-v-fde0c5aa=""><!----></defs><g data-v-fde0c5aa="" id="3f1938a6-eddd-4e1d-bbcc-1c674bfc1a47" fill="#ffffff" transform="matrix(2.7240984439849854,0,0,2.7240984439849854,146.15992840426406,135.7121038018924)"><path d="M3.44 10.50L3.44 10.22L2.00 10.22L2.00 0.27L3.28 0.27L3.28 0C2.18 0 1.51 0 0.42 0L0.42 0.27L1.68 0.27L1.68 10.22L0.29 10.22L0.29 10.50ZM4.80 0.01L4.80 10.50L8.92 10.50L8.92 10.21L5.12 10.21L5.12 0.01ZM10.54 0.01L10.54 10.50L14.66 10.50L14.66 10.21L10.86 10.21L10.86 0.01ZM16.25 0L15.95 0L15.95 9.11L17.23 10.56L18.86 10.56L20.15 9.11L20.15 0L19.84 0L19.84 8.99L18.70 10.23L17.37 10.23L16.25 8.99ZM22.25 7.28L21.97 7.28L21.97 9.09L23.35 10.53L25.02 10.53L26.40 9.09L26.40 6.38L22.34 3.53L22.34 1.51L23.51 0.31L24.85 0.31L26.07 1.51L26.07 2.88L26.32 2.88L26.32 1.39L24.99-0.01L23.38-0.01L22.04 1.39L22.04 3.68L26.08 6.55L26.08 8.95L24.88 10.22L23.48 10.22L22.25 8.95ZM28.66 10.50L28.66 0C27.57 0 29.43 0 28.34 0L28.34 10.50ZM35.22 9.04L35.22 1.33L33.82-0.07L32.09-0.07L30.69 1.33L30.69 9.04L32.09 10.54L33.82 10.54ZM34.92 8.92L33.68 10.23L32.21 10.23L31.00 8.92L31.00 1.47L32.21 0.24L33.70 0.24L34.92 1.47ZM37.24 10.50L37.56 10.50L37.56 0.35L37.81 0.35L41.23 10.50L41.79 10.50L41.79 0.04L41.48 0.04L41.50 10.26L41.47 10.26L38.05 0.04L37.24 0.04Z"></path></g><defs data-v-fde0c5aa=""><!----></defs><g data-v-fde0c5aa="" id="880c2b11-b0d3-4459-bbcb-a11a985e1fb8" stroke="#ffffff" fill="none" transform="matrix(0.321746289730072,0,0,0.321746289730072,101.77528783382424,139.8649918397632)"><path d="M-192 0H-7v99h-185zM0-36h100v30H0z"></path><text transform="translate(66 -19.5)" font-family="'Helvetica'" font-size="2.4">http://thenounproject.com</text><text transform="translate(7.166 -24.5)"><tspan x="0" y="0" font-family="'Helvetica-Bold'" font-size="6.158">The Noun Project</tspan><tspan x="1.12" y="4.8" font-family="'Helvetica-Bold'" font-size="4">Icon Template</tspan></text><text transform="translate(-178.5 10.5)" font-family="'Helvetica-Bold'" font-size="6.158">Reminders</text><path stroke-miterlimit="10" d="M8-14.5h10M-179 16.5h17"></path><path d="M-170.802 31.318h8.721v8.642h-8.721z"></path><path d="M-164.455 42.312h4.747v-4.703h-4.747v4.703zm5.189.437h-5.63V37.17h5.63v5.579zm-6.955 1.313h8.279v-8.203h-8.279v8.203zm8.721.438h-9.163v-9.079h9.163V44.5z"></path><path d="M-166.149 44.133l-.143-.142 8.279-8.204.142.142z"></path><path d="M-179 58h35v32.5h-35z"></path><text transform="translate(-179 60.154)"><tspan x="0" y="0" font-family="'Helvetica-Bold'" font-size="3">Strokes</tspan><tspan x="0" y="5" font-family="'Helvetica'" font-size="2.4">Try to keep strokes at 4px</tspan><tspan x="0" y="10" font-family="'Helvetica'" font-size="2.4">Minimum stroke weight is 2px</tspan><tspan x="0" y="14.5" font-family="'Helvetica'" font-size="2.4">For thicker strokes use even </tspan><tspan x="0" y="17.5" font-family="'Helvetica'" font-size="2.4">numbers: 6px, 8px etc.</tspan><tspan x="0" y="22" font-family="'Helvetica-Bold'" font-size="2.4">Remember to expand strokes </tspan><tspan x="0" y="25" font-family="'Helvetica-Bold'" font-size="2.4">before saving as an SVG</tspan></text><path d="M-136.5 58h35v32.5h-35z"></path><text transform="translate(-136.5 60.154)"><tspan x="0" y="0" font-family="'Helvetica-Bold'" font-size="3">Size</tspan><tspan x="0" y="5" font-family="'Helvetica'" font-size="2.4">Cannot be wider or taller than </tspan><tspan x="0" y="8.5" font-family="'Helvetica'" font-size="2.4">100px (artboard size)</tspan><tspan x="0" y="13.5" font-family="'Helvetica'" font-size="2.4">Scale your icon to fill as much of </tspan><tspan x="0" y="16.5" font-family="'Helvetica'" font-size="2.4">the artboard as possible</tspan></text><path d="M-94 58h35v32.5h-35z"></path><text transform="translate(-94 60.154)"><tspan x="0" y="0" font-family="'Helvetica-Bold'" font-size="3">Ungroup</tspan><tspan x="0" y="5" font-family="'Helvetica'" font-size="2.4">If your design has more than one </tspan><tspan x="0" y="8" font-family="'Helvetica'" font-size="2.4">shape, make sure to ungroup</tspan></text><path d="M-50 58h35v32.5h-35z"></path><text transform="translate(-50 60.154)"><tspan x="0" y="0" font-family="'Helvetica-Bold'" font-size="3">Save as</tspan><tspan x="0" y="5" font-family="'Helvetica'" font-size="2.4">Save as .SVG and make sure </tspan><tspan x="0" y="8" font-family="'Helvetica'" font-size="2.4">“Use Artboards” is checked</tspan></text><text transform="matrix(1.0074 0 0 1 -125.542 30.593)" font-family="'Helvetica'" font-size="2.573">100px</text><text transform="matrix(1.0074 0 0 1 -41 39)" font-family="'Helvetica-Bold'" font-size="5.146">.SVG</text><path d="M-126.514 34.815h10.261V45h-10.261zM-126.477 31.766h.522v2.337h-.522zM-116.813 31.766h.523v2.337h-.523z"></path><path d="M-127 32.337h11.233v.572H-127zM-83.805 33.844H-73.5V44h-10.305zM-76.809 28.707h3.308v3.261h-3.308z"></path><path stroke="#FFF" stroke-miterlimit="10" d="M-178.5 22.5h30v30h-30zM-136.5 22.5h30v30h-30zM-93.5 22.5h30v30h-30zM-49.5 22.5h30v30h-30z"></path><g><path d="M17.798 0L.108 17.837v80.997h82.796L100 81.148V0H17.798zm21.575 58.886V39.637H60.24v19.249H39.373zM62.926 30.47H39.373V23.5h30.523l-6.97 6.97zM36.742 68.053H60.24v6.535H30.465l6.277-6.535zM9.275 21.612l5.85-5.898v68.042h54.283V36.952l6.97-6.971v59.687H9.275V21.612zm81.557 55.83l-5.288 5.472V14.333H30.205v47.292l-5.914 6.158V9.167h66.541v68.275z"></path></g></g><!----></svg>