<svg id="Layer_1" data-name="Layer 1" xmlns="http://www.w3.org/2000/svg" viewBox="0 0 152.4 127.07">
  <rect x="28.01" y="34.17" width="10.06" height="63.29" transform="translate(12.39 -4.87) rotate(10.37)" fill="#c69"/>
  <rect x="91.71" y="34.17" width="10.06" height="63.29" transform="translate(13.43 -16.34) rotate(10.37)" fill="#c69"/>
  <g>
    <polygon points="84.86 72.55 75.94 76.86 46.86 49.15 48.25 41.37 84.86 72.55" fill="#c69"/>
    <polygon points="75.2 68.43 76.05 76.81 38.29 95.06 39.84 86.17 75.2 68.43" fill="#c69"/>
  </g>
  <path d="M126.85,67.22c-5.59,0-6.37,5-6.37,8.65a93.9,93.9,0,0,0,.63,9.47c.31,3.16.63,6.43.63,9.59,0,11.8-5,16-11.4,16h-1.65v-6.43H110c4.4-.11,6.29-3.62,6.29-10.17,0-2.8-.31-5.49-.55-8.41a79.28,79.28,0,0,1-.63-8.89c0-7.48,2.2-11.45,5.66-12.74v-.23c-3.46-1.41-5.66-5.15-5.66-12.63a81.19,81.19,0,0,1,.63-8.88c.24-2.81.55-5.61.55-8.3,0-6.32-1.65-9.94-6.21-10.06h-1.41V17.77h1.57c6.68,0,11.48,4.56,11.48,15.32,0,3.27-.32,6.43-.63,9.7s-.63,6.55-.63,9.82c0,4.09.78,8.65,6.37,8.65Z" fill="#a8c2d7"/>
  <path d="M2.2,61.26c5.58,0,6.37-4.56,6.37-8.65,0-3.28-.32-6.55-.63-9.82s-.63-6.43-.63-9.71c0-10.75,4.72-15.31,11.4-15.31h1.65V24.2H19c-4.64,0-6.21,3.74-6.21,10.05a74,74,0,0,0,.55,8.3,81.75,81.75,0,0,1,.55,8.89c.07,7.48-2.13,11.22-5.66,12.62v.24c3.53,1.28,5.73,5.26,5.66,12.74a79.7,79.7,0,0,1-.55,8.88,76.08,76.08,0,0,0-.55,8.42c0,6.55,1.8,10.17,6.21,10.17h1.41v6.43H18.71c-6.52,0-11.4-4.21-11.4-16,0-3.15.31-6.43.63-9.58s.63-6.31.63-9.47c0-3.62-.79-8.65-6.37-8.65Z" fill="#a8c2d7"/>
</svg>
